<?xml version="1.0" standalone="no"?>
<!DOCTYPE svg PUBLIC "-//W3C//DTD SVG 20010904//EN"
 "http://www.w3.org/TR/2001/REC-SVG-20010904/DTD/svg10.dtd">
<svg version="1.0" xmlns="http://www.w3.org/2000/svg"
 width="512.000000pt" height="512.000000pt" viewBox="0 0 512.000000 512.000000"
 preserveAspectRatio="xMidYMid meet">
<metadata>
Created by potrace 1.14, written by Peter Selinger 2001-2017
</metadata>
<g transform="translate(0.000000,512.000000) scale(0.100000,-0.100000)"
fill="#000000" stroke="none">
<path d="M1358 4795 c-2 -1 -37 -5 -78 -9 -140 -12 -191 -21 -279 -48 -74 -22
-189 -74 -209 -95 -7 -7 -17 -13 -22 -13 -12 0 -140 -110 -187 -159 -96 -102
-185 -272 -219 -417 -38 -165 -40 -269 -38 -1539 1 -676 4 -1243 7 -1260 2
-16 7 -55 11 -85 4 -30 11 -68 16 -85 5 -16 11 -42 14 -56 18 -110 133 -303
241 -409 86 -84 82 -81 136 -118 145 -98 310 -151 533 -169 113 -9 2407 -10
2531 -1 263 20 432 75 585 193 243 188 358 413 387 760 10 110 10 2436 1 2555
-22 281 -112 494 -279 657 -161 157 -324 242 -529 272 -41 6 -91 14 -110 17
-31 5 -2506 14 -2512 9z"/>
</g>
</svg>
