<?xml version="1.0" standalone="no"?>
<!DOCTYPE svg PUBLIC "-//W3C//DTD SVG 20010904//EN"
 "http://www.w3.org/TR/2001/REC-SVG-20010904/DTD/svg10.dtd">
<svg version="1.0" xmlns="http://www.w3.org/2000/svg"
 width="400.000000pt" height="400.000000pt" viewBox="0 0 400.000000 400.000000"
 preserveAspectRatio="xMidYMid meet">
<metadata>
Created by potrace 1.14, written by Peter Selinger 2001-2017
</metadata>
<g transform="translate(0.000000,400.000000) scale(0.100000,-0.100000)"
fill="#000000" stroke="none">
<path d="M0 2000 l0 -2000 2000 0 2000 0 0 2000 0 2000 -2000 0 -2000 0 0
-2000z m2103 1018 c15 -14 45 -77 77 -163 30 -77 72 -189 96 -250 23 -60 81
-213 129 -340 47 -126 100 -264 116 -305 16 -41 78 -205 138 -363 61 -159 121
-304 136 -322 44 -58 87 -85 166 -101 89 -18 108 -32 91 -69 l-12 -25 -361 2
c-332 3 -363 4 -373 21 -18 29 5 50 68 63 76 15 106 44 106 101 0 37 -73 250
-165 486 -7 17 -28 18 -359 15 -452 -4 -415 12 -524 -228 -109 -241 -117 -274
-86 -318 23 -33 49 -43 137 -56 87 -12 112 -30 91 -63 -10 -16 -39 -18 -337
-21 l-327 -2 -6 25 c-10 40 1 52 53 60 130 19 166 64 303 370 12 28 46 102 75
165 29 63 64 140 78 170 300 665 485 1062 508 1091 31 39 100 79 136 79 12 0
33 -10 46 -22z m-1203 -945 c14 -9 28 -22 32 -27 11 -16 9 -105 -2 -127 -29
-53 -154 -66 -192 -19 -43 53 -30 137 25 170 39 24 104 26 137 3z m2312 -13
c65 -81 9 -190 -99 -190 -83 0 -129 83 -92 164 27 58 152 75 191 26z"/>
<path d="M1936 2682 c-10 -31 -66 -160 -123 -287 -137 -300 -213 -474 -213
-486 0 -6 125 -8 318 -7 l317 3 3 23 c4 25 -6 53 -156 452 -76 204 -112 310
-112 330 0 39 -16 26 -34 -28z"/>
</g>
</svg>
