<?xml version="1.0" standalone="no"?>
<!DOCTYPE svg PUBLIC "-//W3C//DTD SVG 20010904//EN"
 "http://www.w3.org/TR/2001/REC-SVG-20010904/DTD/svg10.dtd">
<svg version="1.0" xmlns="http://www.w3.org/2000/svg"
 width="400.000000pt" height="400.000000pt" viewBox="0 0 400.000000 400.000000"
 preserveAspectRatio="xMidYMid meet">
<metadata>
Created by potrace 1.14, written by Peter Selinger 2001-2017
</metadata>
<g transform="translate(0.000000,400.000000) scale(0.100000,-0.100000)"
fill="#000000" stroke="none">
<path d="M0 2000 l0 -2000 2000 0 2000 0 0 2000 0 2000 -2000 0 -2000 0 0
-2000z m2264 1465 c113 -21 300 -82 396 -130 201 -101 415 -275 458 -373 10
-23 16 -67 16 -117 1 -68 -3 -88 -27 -137 -68 -139 -246 -201 -388 -136 -30
14 -81 49 -114 80 -108 99 -235 171 -365 208 -114 33 -298 38 -421 12 -411
-85 -709 -452 -709 -872 0 -441 331 -821 768 -880 317 -43 619 78 823 330 37
47 139 224 139 244 0 3 -172 6 -382 8 l-383 3 -57 28 c-62 30 -106 74 -140
140 -32 60 -32 194 0 254 34 66 78 110 140 140 l57 28 595 0 c583 0 596 0 640
-21 57 -27 122 -92 152 -152 20 -42 23 -60 22 -167 -2 -232 -69 -472 -189
-686 -220 -389 -583 -646 -1040 -735 -124 -25 -386 -25 -510 0 -636 124 -1087
575 -1211 1211 -25 124 -25 386 0 510 89 457 346 820 734 1039 184 104 339
153 607 190 59 8 302 -4 389 -19z"/>
</g>
</svg>
